<svg fill="#e8eaed" height="24" viewBox="0 -960 960 960" width="24" xmlns="http://www.w3.org/2000/svg"><path d="m200-520q-33 0-56.5-23.5t-23.5-56.5v-160q0-33 23.5-56.5t56.5-23.5h160q33 0 56.5 23.5t23.5 56.5v160q0 33-23.5 56.5t-56.5 23.5zm0 400q-33 0-56.5-23.5t-23.5-56.5v-160q0-33 23.5-56.5t56.5-23.5h160q33 0 56.5 23.5t23.5 56.5v160q0 33-23.5 56.5t-56.5 23.5zm400-400q-33 0-56.5-23.5t-23.5-56.5v-160q0-33 23.5-56.5t56.5-23.5h160q33 0 56.5 23.5t23.5 56.5v160q0 33-23.5 56.5t-56.5 23.5zm0 400q-33 0-56.5-23.5t-23.5-56.5v-160q0-33 23.5-56.5t56.5-23.5h160q33 0 56.5 23.5t23.5 56.5v160q0 33-23.5 56.5t-56.5 23.5zm-400-480h160v-160h-160zm400 0h160v-160h-160zm0 400h160v-160h-160zm-400 0h160v-160h-160z"/></svg>