<svg viewBox="0 0 533.35 533.38" xmlns="http://www.w3.org/2000/svg"><path d="m490.67.05h-445c-5.74-.27-11.47.6-16.87 2.55s-10.36 4.95-14.61 8.82c-4.24 3.87-7.68 8.54-10.11 13.74-2.44 5.19-3.82 10.82-4.08 16.55v446c.34 12 5.26 23.43 13.75 31.92s19.91 13.41 31.92 13.75h445c11.67-.52 22.67-5.59 30.65-14.13s12.29-19.86 12.02-31.54v-446c.1-5.58-.95-11.13-3.07-16.29s-5.28-9.84-9.28-13.74c-3.99-3.9-8.74-6.95-13.96-8.95s-10.78-2.91-16.36-2.68zm-324 444.67h-77.67v-237.67h77.67zm-37-273.67c-5.42.19-10.82-.75-15.86-2.74-5.04-2-9.62-5.02-13.43-8.87-3.82-3.85-6.8-8.45-8.76-13.51s-2.85-10.47-2.61-15.88c-.24-5.48.67-10.94 2.66-16.05 2-5.11 5.04-9.74 8.93-13.6s8.55-6.86 13.67-8.82 10.59-2.82 16.07-2.53c5.42-.19 10.82.74 15.86 2.74s9.62 5.02 13.43 8.87c3.82 3.85 6.8 8.45 8.76 13.51s2.85 10.47 2.61 15.88c.24 5.48-.67 10.94-2.67 16.05s-5.04 9.74-8.93 13.6-8.55 6.86-13.67 8.82-10.59 2.82-16.07 2.53zm315 273.67h-78v-130c0-31-11-52.33-38.67-52.33-8.59.07-16.96 2.8-23.94 7.82-6.98 5.01-12.24 12.06-15.06 20.18-2.17 6.09-3.07 12.55-2.67 19v135.33h-76.67v-237.67h76.67v33.33c6.82-12.52 16.96-22.92 29.31-30.04s26.43-10.68 40.69-10.3c50.33 0 88.33 33.33 88.33 104.33v140.33z"/></svg>