<svg fill="#e8eaed" height="24" viewBox="0 -960 960 960" width="24" xmlns="http://www.w3.org/2000/svg"><path d="m574-129-214-75-186 72q-10 4-19.5 2.5t-17.5-6.5q-8-5-12.5-13.5t-4.5-19.5v-561q0-13 7.5-23t20.5-15l186-63q6-2 12.5-3t13.5-1q7 0 13.5 1t12.5 3l214 75 186-72q10-4 19.5-2.5t17.5 6.5q8 5 12.5 13.5t4.5 19.5v561q0 13-7.5 23t-20.5 15l-186 63q-6 2-12.5 3t-13.5 1q-7 0-13.5-1t-12.5-3zm-14-89v-468l-160-56v468zm80 0 120-40v-474l-120 46zm-440-10 120-46v-468l-120 40zm440-458v468zm-320-56v468z"/></svg>